<?xml version="1.0" encoding="UTF-8"?>
<svg version="1.1" xmlns="http://www.w3.org/2000/svg" width="400" height="400">
<path d="M0 0 C132 0 264 0 400 0 C400 132 400 264 400 400 C268 400 136 400 0 400 C0 268 0 136 0 0 Z " fill="#161415" transform="translate(0,0)"/>
<path d="M0 0 C1.42505859 0.75410156 1.42505859 0.75410156 2.87890625 1.5234375 C4.01070313 2.09320313 5.1425 2.66296875 6.30859375 3.25 C7.44554687 3.87648438 8.5825 4.50296875 9.75390625 5.1484375 C10.90632813 5.78007813 12.05875 6.41171875 13.24609375 7.0625 C14.11492187 7.54460937 14.98375 8.02671875 15.87890625 8.5234375 C15.87890625 9.1834375 15.87890625 9.8434375 15.87890625 10.5234375 C16.71808594 10.7709375 17.55726563 11.0184375 18.421875 11.2734375 C22.2557762 12.65970686 25.67535231 14.49218293 29.19140625 16.5234375 C29.88218262 16.91716553 30.57295898 17.31089355 31.28466797 17.71655273 C37.10949918 21.04868146 42.89261478 24.45245504 48.67016602 27.86572266 C54.6796384 31.41555826 60.72973427 34.89029333 66.79736328 38.33984375 C71.2223355 40.85594337 75.64462052 43.3767434 80.06640625 45.8984375 C80.9884082 46.4229248 81.91041016 46.94741211 82.86035156 47.48779297 C83.7262793 47.98166504 84.59220703 48.47553711 85.484375 48.984375 C86.25934326 49.42571777 87.03431152 49.86706055 87.83276367 50.32177734 C89.55049137 51.33056576 91.22142478 52.41844985 92.87890625 53.5234375 C92.87890625 54.1834375 92.87890625 54.8434375 92.87890625 55.5234375 C92.21890625 55.5234375 91.55890625 55.5234375 90.87890625 55.5234375 C90.87890625 56.1834375 90.87890625 56.8434375 90.87890625 57.5234375 C89.91210938 57.91144531 88.9453125 58.29945313 87.94921875 58.69921875 C83.34024007 60.67730629 79.07216372 63.17166045 74.75390625 65.7109375 C73.92656982 66.195625 73.0992334 66.6803125 72.24682617 67.1796875 C70.57869303 68.15959251 68.91192144 69.14181939 67.24658203 70.12646484 C65.08690992 71.40071148 62.91946383 72.66050202 60.75 73.91796875 C59.56316252 74.61870957 58.37691809 75.32045628 57.19140625 76.0234375 C55.63873047 76.93609375 55.63873047 76.93609375 54.0546875 77.8671875 C53.33667969 78.41375 52.61867187 78.9603125 51.87890625 79.5234375 C51.87890625 80.5134375 51.87890625 81.5034375 51.87890625 82.5234375 C50.93015625 82.7709375 49.98140625 83.0184375 49.00390625 83.2734375 C45.40263306 84.71394677 45.38710322 85.20540417 43.87890625 88.5234375 C40.37737556 90.98397258 36.25969882 93.5234375 31.87890625 93.5234375 C31.54890625 94.1834375 31.21890625 94.8434375 30.87890625 95.5234375 C29.88890625 96.1834375 28.89890625 96.8434375 27.87890625 97.5234375 C27.38390625 99.0084375 27.38390625 99.0084375 26.87890625 100.5234375 C23.14452777 101.40211479 19.71116052 101.61255969 15.87890625 101.5234375 C15.73453125 102.2865625 15.59015625 103.0496875 15.44140625 103.8359375 C14.87890625 106.5234375 14.87890625 106.5234375 13.87890625 109.5234375 C11.23890625 109.5234375 8.59890625 109.5234375 5.87890625 109.5234375 C5.21890625 111.8334375 4.55890625 114.1434375 3.87890625 116.5234375 C1.89890625 116.0284375 1.89890625 116.0284375 -0.12109375 115.5234375 C-0.45109375 149.8434375 -0.78109375 184.1634375 -1.12109375 219.5234375 C-4.82025343 218.59864758 -7.0380804 217.55857129 -10.26953125 215.64453125 C-11.26726562 215.05736328 -12.265 214.47019531 -13.29296875 213.86523438 C-14.35 213.23681641 -15.40703125 212.60839844 -16.49609375 211.9609375 C-18.69114174 210.66751974 -20.88645238 209.37454762 -23.08203125 208.08203125 C-24.13487305 207.46054199 -25.18771484 206.83905273 -26.27246094 206.19873047 C-29.53947049 204.27738837 -32.82411386 202.39281692 -36.12109375 200.5234375 C-43.33408078 196.42296366 -50.48679981 192.2206752 -57.64624023 188.02758789 C-65.8914955 183.21114198 -74.19450183 178.50294385 -82.54663086 173.87426758 C-83.88479858 173.12632935 -83.88479858 173.12632935 -85.25 172.36328125 C-86.0241626 171.93394287 -86.7983252 171.50460449 -87.59594727 171.06225586 C-88.42924561 170.5544458 -89.26254395 170.04663574 -90.12109375 169.5234375 C-90.69617015 169.23517027 -91.27124655 168.94690304 -91.8637495 168.64990044 C-94.81376221 166.9556405 -96.76802499 165.67229583 -97.79403782 162.33372974 C-98.07743614 159.53225801 -98.13545365 156.80106331 -98.12207031 153.98510742 C-98.1439743 152.92433487 -98.1658783 151.86356232 -98.18844604 150.77064514 C-98.24983388 147.26444681 -98.25864643 143.76060948 -98.26171875 140.25390625 C-98.28167435 137.81398031 -98.30282989 135.37406392 -98.32513428 132.93415833 C-98.36253877 127.81874229 -98.37150696 122.70415956 -98.36328125 117.58862305 C-98.35698191 111.03984568 -98.44212732 104.49581718 -98.55148697 97.94808483 C-98.62190085 92.90774872 -98.63282783 87.86855583 -98.62706757 82.82778358 C-98.63347291 80.41437536 -98.6607776 78.00092719 -98.70954132 75.58800316 C-99.04365202 57.22467836 -99.04365202 57.22467836 -95.86541748 52.75918198 C-92.41947922 49.5860597 -88.50161236 48.11233079 -84.12109375 46.5234375 C-82.17210339 45.42066276 -80.24066668 44.28543232 -78.33984375 43.1015625 C-76.43467249 41.99033596 -74.52839842 40.88099826 -72.62109375 39.7734375 C-71.08086548 38.8767334 -71.08086548 38.8767334 -69.50952148 37.96191406 C-61.88499428 33.52996333 -54.23234569 29.1485391 -46.56884766 24.78442383 C-41.18739423 21.71612326 -35.83189036 18.60788177 -30.49609375 15.4609375 C-29.82288086 15.06712891 -29.14966797 14.67332031 -28.45605469 14.26757812 C-24.62411687 12.02208812 -20.82884455 9.72819295 -17.0546875 7.38671875 C-15.34772715 6.34884172 -13.64069729 5.311079 -11.93359375 4.2734375 C-11.1432373 3.77062256 -10.35288086 3.26780762 -9.53857422 2.74975586 C-3.96069287 -0.60476161 -3.96069287 -0.60476161 0 0 Z " fill="#E3E2E2" transform="translate(201.12109375,90.4765625)"/>
<path d="M0 0 C0.33 0 0.66 0 1 0 C1 36.96 1 73.92 1 112 C-1.64 113.32 -4.28 114.64 -7 116 C-8.19625 116.7425 -9.3925 117.485 -10.625 118.25 C-14.14777943 120.07662637 -16.10279166 120.38021545 -20 120 C-20.061875 120.61875 -20.12375 121.2375 -20.1875 121.875 C-21 124 -21 124 -23.4375 125.25 C-26 126 -26 126 -28 126 C-28.66 126.99 -29.32 127.98 -30 129 C-31.32 128.67 -32.64 128.34 -34 128 C-34.33 129.32 -34.66 130.64 -35 132 C-35.99 132 -36.98 132 -38 132 C-38 132.66 -38 133.32 -38 134 C-39.32 134 -40.64 134 -42 134 C-42 134.66 -42 135.32 -42 136 C-42.556875 136.061875 -43.11375 136.12375 -43.6875 136.1875 C-46.20527493 136.87155414 -46.20527493 136.87155414 -48.1015625 139.25 C-51.64914468 142.61590007 -55.35902273 144.60604127 -59.6875 146.8125 C-60.45900391 147.21919922 -61.23050781 147.62589844 -62.02539062 148.04492188 C-67.71205357 151 -67.71205357 151 -70 151 C-70 151.66 -70 152.32 -70 153 C-72.74615804 154.48638267 -75.49754691 155.96281172 -78.25 157.4375 C-79.02730469 157.85837891 -79.80460938 158.27925781 -80.60546875 158.71289062 C-81.73662109 159.31713867 -81.73662109 159.31713867 -82.890625 159.93359375 C-83.58188477 160.30540771 -84.27314453 160.67722168 -84.98535156 161.06030273 C-88.09660736 162.51149318 -90.56326383 163 -94 163 C-94.04626236 149.86579187 -94.08183809 136.73160299 -94.10362434 123.59733009 C-94.11407861 117.49910233 -94.12826772 111.40093014 -94.15087891 105.30273438 C-94.17254877 99.42186306 -94.18455623 93.54104533 -94.18975449 87.66013718 C-94.1934608 85.41216564 -94.20069788 83.16419715 -94.21146011 80.91624832 C-94.2258972 77.77694521 -94.22798121 74.63786591 -94.22705078 71.49853516 C-94.23424133 70.56130112 -94.24143188 69.62406708 -94.24884033 68.65843201 C-94.246091 67.80585312 -94.24334167 66.95327423 -94.24050903 66.07485962 C-94.24235262 65.33189447 -94.24419621 64.58892933 -94.24609566 63.82345009 C-94 62 -94 62 -92 60 C-92 60.99 -92 61.98 -92 63 C-89.3534665 60.3534665 -88.40058003 57.43778736 -87 54 C-84.36 54.66 -81.72 55.32 -79 56 C-79.04125 54.88625 -79.0825 53.7725 -79.125 52.625 C-79 49 -79 49 -77 47 C-74.9911178 46.96811298 -72.97993744 46.94104942 -70.97265625 47.02734375 C-68.78493865 47.09667321 -68.78493865 47.09667321 -66 46 C-65.26676204 43.98491642 -65.26676204 43.98491642 -65 42 C-64.01 42 -63.02 42 -62 42 C-61.34 40.68 -60.68 39.36 -60 38 C-59.01 38.495 -59.01 38.495 -58 39 C-55.58443323 37.73490246 -55.58443323 37.73490246 -53 36 C-52.113125 35.525625 -51.22625 35.05125 -50.3125 34.5625 C-47.87992392 33.19435425 -47.87992392 33.19435425 -46.9375 30.875 C-46.628125 30.25625 -46.31875 29.6375 -46 29 C-44.66666667 28.66666667 -43.33333333 28.33333333 -42 28 C-41.72027344 27.38753418 -41.44054687 26.77506836 -41.15234375 26.14404297 C-39.69154219 23.42608549 -38.2503957 22.67526787 -35.5625 21.1953125 C-34.21865234 20.44314453 -34.21865234 20.44314453 -32.84765625 19.67578125 C-31.90792969 19.16402344 -30.96820313 18.65226562 -30 18.125 C-28.16605374 17.1078752 -26.33271841 16.08964806 -24.5 15.0703125 C-23.59121094 14.56790039 -22.68242187 14.06548828 -21.74609375 13.54785156 C-18.18092514 11.53832374 -14.68276317 9.427126 -11.19140625 7.29248047 C-5.60899131 4 -5.60899131 4 -2 4 C-2 3.34 -2 2.68 -2 2 C-1.34 2 -0.68 2 0 2 C0 1.34 0 0.68 0 0 Z " fill="#4F4D4E" transform="translate(294,144)"/>
<path d="M0 0 C3.56959273 1.39239433 6.82462937 3.065357 10.1796875 4.9140625 C11.33210938 5.54570313 12.48453125 6.17734375 13.671875 6.828125 C14.97511719 7.55128906 14.97511719 7.55128906 16.3046875 8.2890625 C16.3046875 8.9490625 16.3046875 9.6090625 16.3046875 10.2890625 C17.14386719 10.5365625 17.98304688 10.7840625 18.84765625 11.0390625 C22.68155745 12.42533186 26.10113356 14.25780793 29.6171875 16.2890625 C30.30796387 16.68279053 30.99874023 17.07651855 31.71044922 17.48217773 C37.53528043 20.81430646 43.31839603 24.21808004 49.09594727 27.63134766 C55.10541965 31.18118326 61.15551552 34.65591833 67.22314453 38.10546875 C71.64811675 40.62156837 76.07040177 43.1423684 80.4921875 45.6640625 C81.41418945 46.1885498 82.33619141 46.71303711 83.28613281 47.25341797 C84.15206055 47.74729004 85.01798828 48.24116211 85.91015625 48.75 C86.68512451 49.19134277 87.46009277 49.63268555 88.25854492 50.08740234 C89.97627262 51.09619076 91.64720603 52.18407485 93.3046875 53.2890625 C93.3046875 53.9490625 93.3046875 54.6090625 93.3046875 55.2890625 C92.6446875 55.2890625 91.9846875 55.2890625 91.3046875 55.2890625 C91.3046875 55.9490625 91.3046875 56.6090625 91.3046875 57.2890625 C90.33789062 57.67707031 89.37109375 58.06507813 88.375 58.46484375 C83.76602132 60.44293129 79.49794497 62.93728545 75.1796875 65.4765625 C74.35235107 65.96125 73.52501465 66.4459375 72.67260742 66.9453125 C71.00447428 67.92521751 69.33770269 68.90744439 67.67236328 69.89208984 C65.51269117 71.16633648 63.34524508 72.42612702 61.17578125 73.68359375 C59.98894377 74.38433457 58.80269934 75.08608128 57.6171875 75.7890625 C56.58207031 76.3975 55.54695313 77.0059375 54.48046875 77.6328125 C53.76246094 78.179375 53.04445312 78.7259375 52.3046875 79.2890625 C52.3046875 80.2790625 52.3046875 81.2690625 52.3046875 82.2890625 C51.3559375 82.5365625 50.4071875 82.7840625 49.4296875 83.0390625 C45.82841431 84.47957177 45.81288447 84.97102917 44.3046875 88.2890625 C40.80315681 90.74959758 36.68548007 93.2890625 32.3046875 93.2890625 C31.9746875 93.9490625 31.6446875 94.6090625 31.3046875 95.2890625 C30.3146875 95.9490625 29.3246875 96.6090625 28.3046875 97.2890625 C27.8096875 98.7740625 27.8096875 98.7740625 27.3046875 100.2890625 C23.57030902 101.16773979 20.13694177 101.37818469 16.3046875 101.2890625 C16.1603125 102.0521875 16.0159375 102.8153125 15.8671875 103.6015625 C15.3046875 106.2890625 15.3046875 106.2890625 14.3046875 109.2890625 C11.6646875 109.2890625 9.0246875 109.2890625 6.3046875 109.2890625 C5.6446875 111.5990625 4.9846875 113.9090625 4.3046875 116.2890625 C2.9846875 115.9590625 1.6646875 115.6290625 0.3046875 115.2890625 C-0.0253125 149.6090625 -0.3553125 183.9290625 -0.6953125 219.2890625 C-1.0253125 219.2890625 -1.3553125 219.2890625 -1.6953125 219.2890625 C-1.6953125 182.9890625 -1.6953125 146.6890625 -1.6953125 109.2890625 C1.2746875 107.6390625 4.2446875 105.9890625 7.3046875 104.2890625 C6.9746875 103.2990625 6.6446875 102.3090625 6.3046875 101.2890625 C5.3353125 101.4746875 4.3659375 101.6603125 3.3671875 101.8515625 C1.85125 102.068125 1.85125 102.068125 0.3046875 102.2890625 C-1.76211684 100.22225816 -1.09870675 95.92887328 -1.2265625 93.08203125 C-1.26809448 92.20242233 -1.30962646 91.32281342 -1.35241699 90.41654968 C-1.971956 76.18093523 -2.05773907 61.92664145 -2.24755859 47.68041992 C-2.44066731 33.52590514 -2.63859939 19.40977615 -3.6953125 5.2890625 C-5.69147804 7.28522804 -5.10514677 11.10608213 -5.2578125 13.8515625 C-5.30099609 14.56248047 -5.34417969 15.27339844 -5.38867188 16.00585938 C-5.49503027 17.76668162 -5.59570096 19.5278457 -5.6953125 21.2890625 C-6.0253125 21.2890625 -6.3553125 21.2890625 -6.6953125 21.2890625 C-6.74935699 18.53879833 -6.78900556 15.78960047 -6.8203125 13.0390625 C-6.83707031 12.26175781 -6.85382813 11.48445313 -6.87109375 10.68359375 C-6.93397803 3.32613322 -6.93397803 3.32613322 -4.6953125 0.2890625 C-2.6953125 -0.7109375 -2.6953125 -0.7109375 0 0 Z " fill="#A1A0A1" transform="translate(200.6953125,90.7109375)"/>
<path d="M0 0 C0.33 0 0.66 0 1 0 C1 36.96 1 73.92 1 112 C-3.66666667 114.33333333 -8.33333333 116.66666667 -13 119 C-13.495 116.525 -13.495 116.525 -14 114 C-11.525 113.505 -11.525 113.505 -9 113 C-9.495 110.525 -9.495 110.525 -10 108 C-7.03 107.505 -7.03 107.505 -4 107 C-2.9571448 73.60367167 -3.09787913 40.40006562 -4 7 C-3.34 7 -2.68 7 -2 7 C-2 6.34 -2 5.68 -2 5 C-2.66 4.67 -3.32 4.34 -4 4 C-3.34 4 -2.68 4 -2 4 C-2 3.34 -2 2.68 -2 2 C-1.34 2 -0.68 2 0 2 C0 1.34 0 0.68 0 0 Z " fill="#454445" transform="translate(294,144)"/>
<path d="M0 0 C0.66 0.99 1.32 1.98 2 3 C1.05125 3.2475 0.1025 3.495 -0.875 3.75 C-4.47627319 5.19050927 -4.49180303 5.68196667 -6 9 C-9.50153069 11.46053508 -13.61920743 14 -18 14 C-18.33 14.66 -18.66 15.32 -19 16 C-19.99 16.66 -20.98 17.32 -22 18 C-22.33 18.99 -22.66 19.98 -23 21 C-26.73437848 21.87867729 -30.16774573 22.08912219 -34 22 C-34.2165625 23.1446875 -34.2165625 23.1446875 -34.4375 24.3125 C-35 27 -35 27 -36 30 C-38.64 30 -41.28 30 -44 30 C-44.66 32.31 -45.32 34.62 -46 37 C-47.32 36.67 -48.64 36.34 -50 36 C-50.33 70.32 -50.66 104.64 -51 140 C-51.33 140 -51.66 140 -52 140 C-52 103.7 -52 67.4 -52 30 C-42.76 24.72 -33.52 19.44 -24 14 C-19.71 11.36 -15.42 8.72 -11 6 C-7.34260312 3.97213638 -3.69467275 1.95469661 0 0 Z " fill="#9B999A" transform="translate(251,170)"/>
<path d="M0 0 C0.33 0.66 0.66 1.32 1 2 C3.475 2.99 3.475 2.99 6 4 C6 26.11 6 48.22 6 71 C5.01 71.495 5.01 71.495 4 72 C3.67 70.68 3.34 69.36 3 68 C2.34 68 1.68 68 1 68 C1 55.79 1 43.58 1 31 C1.66 31 2.32 31 3 31 C2.87625 29.824375 2.7525 28.64875 2.625 27.4375 C2.55539063 26.77621094 2.48578125 26.11492187 2.4140625 25.43359375 C2.02911507 22.83192901 2.02911507 22.83192901 0.96875 19.75 C-0.11985953 15.53602763 -0.22769801 11.87976619 -0.125 7.5625 C-0.11597656 6.83095703 -0.10695312 6.09941406 -0.09765625 5.34570312 C-0.07436153 3.56365702 -0.0385019 1.78178241 0 0 Z " fill="#E6E5E6" transform="translate(193,217)"/>
<path d="M0 0 C3.3959144 1.29012466 6.51358108 2.76168447 9.66015625 4.57421875 C10.5313208 5.07405273 11.40248535 5.57388672 12.30004883 6.08886719 C13.66746216 6.88019043 13.66746216 6.88019043 15.0625 7.6875 C15.99537842 8.22407227 16.92825684 8.76064453 17.8894043 9.31347656 C24.60842013 13.18223049 31.3165058 17.07016076 38 21 C37.34 21.66 36.68 22.32 36 23 C34.66158328 22.68770276 33.32860925 22.35169068 32 22 C29.81296615 22.37907282 29.81296615 22.37907282 28 23 C27.67 22.34 27.34 21.68 27 21 C26.01 20.67 25.02 20.34 24 20 C23.3125 17.9375 23.3125 17.9375 23 16 C20.69 15.67 18.38 15.34 16 15 C16 14.34 16 13.68 16 13 C11.545 13.495 11.545 13.495 7 14 C6.67 11.69 6.34 9.38 6 7 C3.69 7 1.38 7 -1 7 C-0.7525 6.1028125 -0.7525 6.1028125 -0.5 5.1875 C0.1114124 2.88655664 0.1114124 2.88655664 0 0 Z " fill="#7D7C7D" transform="translate(225,105)"/>
<path d="M0 0 C0.33 0 0.66 0 1 0 C1.33 18.48 1.66 36.96 2 56 C-5 59.5 -5 59.5 -12 63 C-12.33 61.35 -12.66 59.7 -13 58 C-10.525 57.505 -10.525 57.505 -8 57 C-8.33 55.35 -8.66 53.7 -9 52 C-6.03 51.505 -6.03 51.505 -3 51 C-2.67 42.09 -2.34 33.18 -2 24 C-1.67 24 -1.34 24 -1 24 C-0.67 16.08 -0.34 8.16 0 0 Z " fill="#3C3A3B" transform="translate(293,200)"/>
<path d="M0 0 C0 0.66 0 1.32 0 2 C0.66 2 1.32 2 2 2 C2 4.31 2 6.62 2 9 C0.35425434 9.02688151 -1.29161413 9.04634123 -2.9375 9.0625 C-3.85402344 9.07410156 -4.77054688 9.08570313 -5.71484375 9.09765625 C-8 9 -8 9 -9 8 C-11.05396726 8.40929986 -11.05396726 8.40929986 -13 9 C-13.33 10.98 -13.66 12.96 -14 15 C-14.66 15 -15.32 15 -16 15 C-16.556875 15.144375 -17.11375 15.28875 -17.6875 15.4375 C-20.76372604 16.1857712 -23.86447928 16.57791067 -27 17 C-27.33 16.34 -27.66 15.68 -28 15 C-24.97936113 13.24966419 -21.95845327 11.49979312 -18.9375 9.75 C-18.08994141 9.25886719 -17.24238281 8.76773438 -16.36914062 8.26171875 C-14.69729333 7.29346742 -13.0246178 6.32664461 -11.35107422 5.36132812 C-9.85896804 4.49736301 -8.37053173 3.62700332 -6.88720703 2.74804688 C-2.21383102 0 -2.21383102 0 0 0 Z " fill="#A9A7A8" transform="translate(150,119)"/>
<path d="M0 0 C0 2.64 0 5.28 0 8 C-3.3 8 -6.6 8 -10 8 C-10.66 9.32 -11.32 10.64 -12 12 C-14.0625 13.125 -14.0625 13.125 -16 14 C-16.33 14.66 -16.66 15.32 -17 16 C-19.31 16 -21.62 16 -24 16 C-24.33 15.01 -24.66 14.02 -25 13 C-24.48091064 12.71278076 -23.96182129 12.42556152 -23.42700195 12.12963867 C-21.05499613 10.8165026 -18.68374289 9.50201321 -16.3125 8.1875 C-15.49587891 7.73568359 -14.67925781 7.28386719 -13.83789062 6.81835938 C-10.53614411 4.98702629 -7.25694278 3.15851027 -4.04296875 1.17578125 C-2 0 -2 0 0 0 Z " fill="#A9A7A8" transform="translate(176,104)"/>
<path d="M0 0 C0.33 0.66 0.66 1.32 1 2 C3.475 2.99 3.475 2.99 6 4 C6 12.91 6 21.82 6 31 C-1.24662149 21.33783801 -0.3348313 11.49587466 0 0 Z " fill="#F6F6F6" transform="translate(193,217)"/>
<path d="M0 0 C1.98498051 0.92512666 3.96286018 1.86550237 5.9375 2.8125 C7.03964844 3.33457031 8.14179688 3.85664063 9.27734375 4.39453125 C12 6 12 6 13 9 C12.34 9 11.68 9 11 9 C11 9.66 11 10.32 11 11 C9.9275 11.45375 8.855 11.9075 7.75 12.375 C5.11937683 13.50088537 2.53999604 14.67920206 0 16 C0.33 13.36 0.66 10.72 1 8 C1.99 7.67 2.98 7.34 4 7 C3.360625 6.731875 2.72125 6.46375 2.0625 6.1875 C0 5 0 5 -1 2 C-0.67 1.34 -0.34 0.68 0 0 Z " fill="#7C7B7B" transform="translate(281,137)"/>
<path d="M0 0 C2.0625 0.4375 2.0625 0.4375 4 1 C4 1.66 4 2.32 4 3 C4.66 3 5.32 3 6 3 C6 4.32 6 5.64 6 7 C8.64 7.99 11.28 8.98 14 10 C13 12 13 12 11.18066406 12.74194336 C8.46643311 13.06314154 7.44502609 12.50392665 5.109375 11.12890625 C4.40039062 10.71962891 3.69140625 10.31035156 2.9609375 9.88867188 C2.23132813 9.45103516 1.50171875 9.01339844 0.75 8.5625 C-0.36761719 7.9118457 -0.36761719 7.9118457 -1.5078125 7.24804688 C-3.34499737 6.1763557 -5.17337974 5.08960023 -7 4 C-6.67 3.01 -6.34 2.02 -6 1 C-4.7934375 1.0309375 -4.7934375 1.0309375 -3.5625 1.0625 C-1.06645115 1.29633621 -1.06645115 1.29633621 0 0 Z " fill="#DDDDDD" transform="translate(146,272)"/>
<path d="M0 0 C0.71542969 0.38671875 1.43085937 0.7734375 2.16796875 1.171875 C1.83796875 2.491875 1.50796875 3.811875 1.16796875 5.171875 C0.17796875 5.171875 -0.81203125 5.171875 -1.83203125 5.171875 C-2.16203125 6.821875 -2.49203125 8.471875 -2.83203125 10.171875 C-5.83203125 11.171875 -5.83203125 11.171875 -7.65625 10.39453125 C-9.38151042 9.3203125 -11.10677083 8.24609375 -12.83203125 7.171875 C-12.83203125 6.511875 -12.83203125 5.851875 -12.83203125 5.171875 C-10.8203125 3.59375 -10.8203125 3.59375 -8.14453125 1.921875 C-6.83935547 1.07882813 -6.83935547 1.07882813 -5.5078125 0.21875 C-2.83203125 -0.828125 -2.83203125 -0.828125 0 0 Z " fill="#ABAAAA" transform="translate(117.83203125,138.828125)"/>
<path d="M0 0 C0.66 0 1.32 0 2 0 C2 0.66 2 1.32 2 2 C5.96 2 9.92 2 14 2 C13.67 2.66 13.34 3.32 13 4 C13.78375 4.37125 14.5675 4.7425 15.375 5.125 C18.60628829 7.43306306 19.07506212 9.21616321 20 13 C12.56277607 10.10995576 5.51020941 6.6256751 -1 2 C-0.67 1.34 -0.34 0.68 0 0 Z " fill="#B1AEAF" transform="translate(117,150)"/>
<path d="M0 0 C0.66 0.99 1.32 1.98 2 3 C0.576875 3.37125 0.576875 3.37125 -0.875 3.75 C-4.47627319 5.19050927 -4.49180303 5.68196667 -6 9 C-9.63503708 11.55435038 -13.75912364 14.36338536 -18.3125 13.625 C-18.869375 13.41875 -19.42625 13.2125 -20 13 C-17.12037726 9.86290511 -14.33282095 7.89848524 -10.5625 5.9375 C-6.97226446 4.05499819 -3.45892817 2.1155332 0 0 Z " fill="#636061" transform="translate(251,170)"/>
<path d="M0 0 C0.66 0.33 1.32 0.66 2 1 C1.01 1.33 0.02 1.66 -1 2 C-1.33 4.97 -1.66 7.94 -2 11 C-5.23281653 11.08980046 -7.88212567 10.77946858 -11 10 C-12.66623639 9.96213099 -14.33397597 9.95372155 -16 10 C-11.30665522 5.79217365 -5.75353924 2.54786359 0 0 Z " fill="#A9A7A8" transform="translate(193,93)"/>
<path d="M0 0 C0.66 0.33 1.32 0.66 2 1 C2 1.99 2 2.98 2 4 C1.01 4.66 0.02 5.32 -1 6 C-1.33 6.99 -1.66 7.98 -2 9 C-5.74145836 9.88034314 -9.16178573 10.08343944 -13 10 C-13.99 10 -14.98 10 -16 10 C-5.2 2.65306122 -5.2 2.65306122 0 0 Z " fill="#747172" transform="translate(230,182)"/>
<path d="M0 0 C0 0.66 0 1.32 0 2 C0.66 2 1.32 2 2 2 C2 4.31 2 6.62 2 9 C-1.3 9 -4.6 9 -8 9 C-6.53333333 3.5 -6.53333333 3.5 -4 1.125 C-2 0 -2 0 0 0 Z " fill="#ADABAC" transform="translate(150,119)"/>
<path d="M0 0 C3.69876091 1.37287342 6.9514476 3.06355453 10.3125 5.125 C11.19550781 5.66382813 12.07851562 6.20265625 12.98828125 6.7578125 C13.65214844 7.16773438 14.31601563 7.57765625 15 8 C14.67 8.66 14.34 9.32 14 10 C11.33333333 9.33333333 8.66666667 8.66666667 6 8 C6.33 8.66 6.66 9.32 7 10 C6.01 10 5.02 10 4 10 C3.01 10.495 3.01 10.495 2 11 C1.17361624 8.10765685 1 6.11257569 1 3 C0.67 2.01 0.34 1.02 0 0 Z " fill="#201E1F" transform="translate(167,292)"/>
<path d="M0 0 C2.31 0.33 4.62 0.66 7 1 C4.59310197 3.72675159 2.07528977 5.11966596 -1.1875 6.6875 C-2.08855469 7.12449219 -2.98960937 7.56148437 -3.91796875 8.01171875 C-4.60503906 8.33785156 -5.29210937 8.66398438 -6 9 C-6.66 6.69 -7.32 4.38 -8 2 C-5.66666667 2 -3.33333333 2 -1 2 C-0.67 1.34 -0.34 0.68 0 0 Z " fill="#E1E1E1" transform="translate(216,185)"/>
<path d="M0 0 C3 0 3 0 5 1 C5.66 1.12375 6.32 1.2475 7 1.375 C9 2 9 2 11 5 C10.34 6.32 9.68 7.64 9 9 C5.37 7.02 1.74 5.04 -2 3 C-1.34 2.67 -0.68 2.34 0 2 C0 1.34 0 0.68 0 0 Z " fill="#D3D3D3" transform="translate(181,296)"/>
<path d="M0 0 C4.30764815 1.56641751 8.06171464 3.68336156 12 6 C10 8 10 8 7.3984375 8.1953125 C6.40070313 8.17210937 5.40296875 8.14890625 4.375 8.125 C2.87066406 8.09792969 2.87066406 8.09792969 1.3359375 8.0703125 C0.56507813 8.04710937 -0.20578125 8.02390625 -1 8 C-0.67 5.36 -0.34 2.72 0 0 Z " fill="#817F80" transform="translate(265,128)"/>
<path d="M0 0 C5.75 1.875 5.75 1.875 8 3 C8 3.66 8 4.32 8 5 C9.98 5.66 11.96 6.32 14 7 C14 7.33 14 7.66 14 8 C6.67605634 8.14084507 6.67605634 8.14084507 3 7 C2.2575 6.814375 1.515 6.62875 0.75 6.4375 C0.1725 6.293125 -0.405 6.14875 -1 6 C-1 4 -1 4 1 2 C0.67 1.34 0.34 0.68 0 0 Z " fill="#7D7B7C" transform="translate(209,96)"/>
<path d="M0 0 C1.65 0 3.3 0 5 0 C4.01 0.99 3.02 1.98 2 3 C2.66 3.66 3.32 4.32 4 5 C3.01 5 2.02 5 1 5 C1 5.66 1 6.32 1 7 C-1.97 7 -4.94 7 -8 7 C-8 7.99 -8 8.98 -8 10 C-10.31 10.66 -12.62 11.32 -15 12 C-14.67 10.68 -14.34 9.36 -14 8 C-12.68 8 -11.36 8 -10 8 C-9.34 7.01 -8.68 6.02 -8 5 C-4.375 4.3125 -4.375 4.3125 -1 4 C-0.67 2.68 -0.34 1.36 0 0 Z " fill="#272425" transform="translate(274,264)"/>
<path d="M0 0 C1.65 0 3.3 0 5 0 C4.67 6.93 4.34 13.86 4 21 C3.67 21 3.34 21 3 21 C2.67 15.39 2.34 9.78 2 4 C0.00383446 5.99616554 0.59016573 9.81701963 0.4375 12.5625 C0.39431641 13.27341797 0.35113281 13.98433594 0.30664062 14.71679688 C0.20028223 16.47761912 0.09961154 18.2387832 0 20 C-0.33 20 -0.66 20 -1 20 C-1.02696009 17.2291017 -1.04681952 14.4584655 -1.0625 11.6875 C-1.07087891 10.90181641 -1.07925781 10.11613281 -1.08789062 9.30664062 C-1.09111328 8.54931641 -1.09433594 7.79199219 -1.09765625 7.01171875 C-1.10289307 6.31522217 -1.10812988 5.61872559 -1.11352539 4.90112305 C-1 3 -1 3 0 0 Z " fill="#ADABAC" transform="translate(195,92)"/>
<path d="M0 0 C0.33 0.66 0.66 1.32 1 2 C4.3 1.34 7.6 0.68 11 0 C12 3 12 3 10 8 C6.37 6.02 2.74 4.04 -1 2 C-0.67 1.34 -0.34 0.68 0 0 Z " fill="#D5D5D5" transform="translate(123,264)"/>
<path d="M0 0 C1.32 0.66 2.64 1.32 4 2 C0.71644638 5.67758005 -2.62778237 7.81389118 -7 10 C-7.66 9.67 -8.32 9.34 -9 9 C-8.34 8.34 -7.68 7.68 -7 7 C-7 6.01 -7 5.02 -7 4 C-6.01 4 -5.02 4 -4 4 C-3.34 3.34 -2.68 2.68 -2 2 C-1.34 1.34 -0.68 0.68 0 0 Z " fill="#CCCBCB" transform="translate(232,176)"/>
<path d="M0 0 C5.80342274 1.48805711 10.17590879 4.59097555 15 8 C14.67 8.66 14.34 9.32 14 10 C11.69 9.34 9.38 8.68 7 8 C7 7.34 7 6.68 7 6 C6.401875 5.71125 5.80375 5.4225 5.1875 5.125 C3 4 3 4 0 2 C0 1.34 0 0.68 0 0 Z " fill="#F5F4F4" transform="translate(110,149)"/>
<path d="M0 0 C2.64 0.33 5.28 0.66 8 1 C8 1.99 8 2.98 8 4 C5.11165997 6.10770759 3.61537605 7 0 7 C-1.125 2.25 -1.125 2.25 0 0 Z " fill="#AFADAE" transform="translate(241,168)"/>
<path d="M0 0 C1.60031344 3.20062687 0.03173691 5.72271806 -1 9 C-2.65 8.67 -4.3 8.34 -6 8 C-6.1875 5.125 -6.1875 5.125 -6 2 C-3 0 -3 0 0 0 Z " fill="#7C7C7C" transform="translate(206,198)"/>
<path d="M0 0 C0.66 0.33 1.32 0.66 2 1 C1.34 1.66 0.68 2.32 0 3 C0.99 4.32 1.98 5.64 3 7 C2.67 7.66 2.34 8.32 2 9 C-0.97 7.35 -3.94 5.7 -7 4 C-6.67 3.01 -6.34 2.02 -6 1 C-4.7934375 1.0309375 -4.7934375 1.0309375 -3.5625 1.0625 C-1.06645115 1.29633621 -1.06645115 1.29633621 0 0 Z " fill="#D2D2D2" transform="translate(146,272)"/>
<path d="M0 0 C0 1.98 0 3.96 0 6 C-0.99 6.495 -0.99 6.495 -2 7 C-4.4750171 5.88568235 -6.67883419 4.41849022 -9 3 C-6.31795079 0.31795079 -3.73391546 0 0 0 Z " fill="#1B1B1B" transform="translate(239,105)"/>
<path d="M0 0 C0.66 0.33 1.32 0.66 2 1 C1.06677104 4.22388187 0.58700229 5.66015657 -2.375 7.375 C-5.08323761 8.01981848 -6.42385222 7.95412881 -9 7 C-6.25604436 4.05278838 -3.61662784 1.80831392 0 0 Z " fill="#6A6969" transform="translate(240,176)"/>
<path d="M0 0 C1.125 3.75 1.125 3.75 0 6 C0.99 6.33 1.98 6.66 3 7 C2.67 7.66 2.34 8.32 2 9 C-1.37503669 7.8141763 -3.64722731 6.72426311 -6 4 C-4.02 2.68 -2.04 1.36 0 0 Z " fill="#D3D3D3" transform="translate(111,251)"/>
<path d="M0 0 C-3.2410371 2.49310546 -6.4850387 4.9059805 -10 7 C-10.99 6.67 -11.98 6.34 -13 6 C-12.01 5.01 -11.02 4.02 -10 3 C-10.33 2.34 -10.66 1.68 -11 1 C-7.27569643 0.30710631 -3.78916254 -0.11144596 0 0 Z " fill="#929091" transform="translate(270,159)"/>
<path d="M0 0 C1.2065625 0.0309375 1.2065625 0.0309375 2.4375 0.0625 C2.4375 0.7225 2.4375 1.3825 2.4375 2.0625 C3.0975 2.3925 3.7575 2.7225 4.4375 3.0625 C1.20958445 5.2144437 0.15349191 5.26336443 -3.5625 5.0625 C-3.5625 0.08689024 -3.5625 0.08689024 0 0 Z " fill="#EFEFEF" transform="translate(204.5625,191.9375)"/>
<path d="M0 0 C3.125 0.375 3.125 0.375 6 1 C6 1.66 6 2.32 6 3 C2.04 4.98 2.04 4.98 -2 7 C-2.125 4.625 -2.125 4.625 -2 2 C-1.34 1.34 -0.68 0.68 0 0 Z " fill="#3A3637" transform="translate(240,281)"/>
<path d="M0 0 C0.66 0.33 1.32 0.66 2 1 C1.071875 1.8971875 1.071875 1.8971875 0.125 2.8125 C-2.13676954 5.00811144 -2.13676954 5.00811144 -4 8 C-6 7 -6 7 -7 6 C-7.99 6 -8.98 6 -10 6 C-9.34 4.68 -8.68 3.36 -8 2 C-7.4225 2.226875 -6.845 2.45375 -6.25 2.6875 C-3.87827523 3.26505193 -3.87827523 3.26505193 -1.75 1.5625 C-0.88375 0.7890625 -0.88375 0.7890625 0 0 Z " fill="#272526" transform="translate(210,303)"/>
<path d="M0 0 C2.83833554 1.13533421 4.80962228 2.29083424 7.125 4.25 C4.485 4.58 1.845 4.91 -0.875 5.25 C-1.205 4.59 -1.535 3.93 -1.875 3.25 C-1.545 2.59 -1.215 1.93 -0.875 1.25 C-2.195 0.92 -3.515 0.59 -4.875 0.25 C-2.875 -0.75 -2.875 -0.75 0 0 Z " fill="#7F7D7E" transform="translate(200.875,90.75)"/>
<path d="M0 0 C0.99 0 1.98 0 3 0 C3 2.64 3 5.28 3 8 C-2.875 5.25 -2.875 5.25 -4 3 C-2.68 2.34 -1.36 1.68 0 1 C0 0.67 0 0.34 0 0 Z " fill="#BDBDBD" transform="translate(141,160)"/>
<path d="M0 0 C0.66 0 1.32 0 2 0 C2 2.64 2 5.28 2 8 C-0.31 7.67 -2.62 7.34 -5 7 C-4.0409375 6.6596875 -4.0409375 6.6596875 -3.0625 6.3125 C-0.72806339 5.14749104 -0.72806339 5.14749104 -0.25 2.375 C-0.1675 1.59125 -0.085 0.8075 0 0 Z " fill="#AEACAD" transform="translate(174,104)"/>
<path d="M0 0 C0.99 0.33 1.98 0.66 3 1 C4 4 4 4 3.0625 6.1875 C2.5365625 7.0846875 2.5365625 7.0846875 2 8 C0.35 7.01 -1.3 6.02 -3 5 C-2.01 3.35 -1.02 1.7 0 0 Z " fill="#CACACA" transform="translate(116,256)"/>
<path d="M0 0 C0.66 0.66 1.32 1.32 2 2 C0.68 2.33 -0.64 2.66 -2 3 C-2 3.66 -2 4.32 -2 5 C-5.465 6.485 -5.465 6.485 -9 8 C-9 7.01 -9 6.02 -9 5 C-6.03 3.35 -3.06 1.7 0 0 Z " fill="#828181" transform="translate(213,192)"/>
<path d="M0 0 C-0.875 3.875 -0.875 3.875 -2 5 C-4.33297433 5.04092937 -6.66705225 5.04241723 -9 5 C-2.87096774 0 -2.87096774 0 0 0 Z " fill="#A09E9F" transform="translate(162,112)"/>
<path d="M0 0 C2.875 -0.125 2.875 -0.125 6 0 C6.66 0.66 7.32 1.32 8 2 C2.375 5 2.375 5 -1 5 C-0.67 3.35 -0.34 1.7 0 0 Z M2 1 C3 3 3 3 3 3 Z " fill="#383637" transform="translate(226,289)"/>
<path d="M0 0 C2.475 0.99 2.475 0.99 5 2 C2.64722731 4.72426311 0.37503669 5.8141763 -3 7 C-2.67 5.68 -2.34 4.36 -2 3 C-1.01 3 -0.02 3 1 3 C0.67 2.01 0.34 1.02 0 0 Z " fill="#232122" transform="translate(108,137)"/>
<path d="M0 0 C2.64 0.66 5.28 1.32 8 2 C7 4 7 4 5.1875 4.75 C2.50171361 5.05694702 1.2747813 4.38111722 -1 3 C-0.67 2.01 -0.34 1.02 0 0 Z " fill="#D4D4D4" transform="translate(152,280)"/>
<path d="M0 0 C0.33 0.66 0.66 1.32 1 2 C4.465 1.505 4.465 1.505 8 1 C8 1.99 8 2.98 8 4 C6.3125 4.6875 6.3125 4.6875 4 5 C1.25 3.5625 1.25 3.5625 -1 2 C-0.67 1.34 -0.34 0.68 0 0 Z " fill="#CECCCC" transform="translate(123,264)"/>
<path d="M0 0 C1.32 0.33 2.64 0.66 4 1 C4 1.66 4 2.32 4 3 C5.98 3.66 7.96 4.32 10 5 C9.401875 5.144375 8.80375 5.28875 8.1875 5.4375 C6.43849596 5.8872439 4.71322977 6.42892341 3 7 C3 5.35 3 3.7 3 2 C2.01 1.67 1.02 1.34 0 1 C0 0.67 0 0.34 0 0 Z " fill="#686667" transform="translate(213,208)"/>
<path d="M0 0 C0.99 0.99 1.98 1.98 3 3 C3 3.33 3 3.66 3 4 C-4.625 5 -4.625 5 -8 5 C-4.04 2.525 -4.04 2.525 0 0 Z " fill="#787777" transform="translate(222,187)"/>
<path d="M0 0 C2.02045442 0.60183749 4.02111039 1.27306096 6 2 C6.33 2.66 6.66 3.32 7 4 C6.34 4.66 5.68 5.32 5 6 C1.535 4.02 1.535 4.02 -2 2 C-1.34 1.34 -0.68 0.68 0 0 Z " fill="#1C1A1B" transform="translate(206,91)"/>
<path d="M0 0 C2.475 0.99 2.475 0.99 5 2 C5 2.99 5 3.98 5 5 C3.35 5.33 1.7 5.66 0 6 C0 4.02 0 2.04 0 0 Z " fill="#F6F5F5" transform="translate(104,145)"/>
<path d="M0 0 C0.99 0.33 1.98 0.66 3 1 C5.14255793 0.61067144 5.14255793 0.61067144 7 0 C6.67 1.65 6.34 3.3 6 5 C4.02 4.34 2.04 3.68 0 3 C0 2.01 0 1.02 0 0 Z " fill="#252021" transform="translate(217,98)"/>
<path d="M0 0 C0.66 0 1.32 0 2 0 C2 0.66 2 1.32 2 2 C1.34 2 0.68 2 0 2 C0 2.99 0 3.98 0 5 C-2.31 5.66 -4.62 6.32 -7 7 C-6.67 5.68 -6.34 4.36 -6 3 C-4.68 3 -3.36 3 -2 3 C-1.34 2.01 -0.68 1.02 0 0 Z " fill="#302E2F" transform="translate(266,269)"/>
<path d="M0 0 C2.31 0.33 4.62 0.66 7 1 C4.94766315 3.2477975 3.99332739 4.0022242 1 5 C0.34 4.67 -0.32 4.34 -1 4 C-0.67 2.68 -0.34 1.36 0 0 Z " fill="#D4D4D4" transform="translate(216,185)"/>
<path d="M0 0 C0.99 0 1.98 0 3 0 C3 0.66 3 1.32 3 2 C5.97 2.495 5.97 2.495 9 3 C8.67 3.99 8.34 4.98 8 6 C7.01 6 6.02 6 5 6 C4.67 5.34 4.34 4.68 4 4 C3.01 3.67 2.02 3.34 1 3 C0.67 2.01 0.34 1.02 0 0 Z " fill="#828081" transform="translate(248,122)"/>
<path d="M0 0 C1.98 0.99 3.96 1.98 6 3 C3.94766315 5.2477975 2.99332739 6.0022242 0 7 C0.2784375 6.1028125 0.2784375 6.1028125 0.5625 5.1875 C1.22093687 2.83591238 1.22093687 2.83591238 0 0 Z " fill="#242223" transform="translate(161,105)"/>
<path d="M0 0 C2.31 0 4.62 0 7 0 C7.33 1.32 7.66 2.64 8 4 C7.01 3.67 6.02 3.34 5 3 C4.67 3.66 4.34 4.32 4 5 C2 3.625 2 3.625 0 2 C0 1.34 0 0.68 0 0 Z " fill="#100E0F" transform="translate(186,307)"/>
<path d="M0 0 C2.64 0.33 5.28 0.66 8 1 C8 2.32 8 3.64 8 5 C5.04590299 3.62845496 2.55991624 2.01136276 0 0 Z " fill="#CBC9CA" transform="translate(191,305)"/>
<path d="M0 0 C2.91517292 1.07401108 4.77810176 1.77810176 7 4 C4.6875 4.6875 4.6875 4.6875 2 5 C0.1875 3.5625 0.1875 3.5625 -1 2 C-0.67 1.34 -0.34 0.68 0 0 Z " fill="#201E1F" transform="translate(186,303)"/>
<path d="M0 0 C4.26826873 0 4.93882432 0.37613513 8 3 C5.525 4.485 5.525 4.485 3 6 C2.01 4.02 1.02 2.04 0 0 Z " fill="#211F20" transform="translate(131,273)"/>
<path d="M0 0 C0.66 0 1.32 0 2 0 C2 0.66 2 1.32 2 2 C3.65 1.34 5.3 0.68 7 0 C7.66 0.66 8.32 1.32 9 2 C7.02 2.99 5.04 3.98 3 5 C3 4.34 3 3.68 3 3 C2.34 3 1.68 3 1 3 C0.67 2.01 0.34 1.02 0 0 Z " fill="#232122" transform="translate(120,129)"/>
<path d="M0 0 C1.32 0.66 2.64 1.32 4 2 C0.04 3.98 0.04 3.98 -4 6 C-4.33 5.34 -4.66 4.68 -5 4 C-4.34 4 -3.68 4 -3 4 C-2.67 3.01 -2.34 2.02 -2 1 C-1.34 0.67 -0.68 0.34 0 0 Z " fill="#222021" transform="translate(134,124)"/>
<path d="M0 0 C2.97 1.98 2.97 1.98 6 4 C5.67 4.99 5.34 5.98 5 7 C3.68 7 2.36 7 1 7 C-0.231394 4.53721199 -0.07159196 2.7204945 0 0 Z " fill="#100E0F" transform="translate(129,272)"/>
<path d="M0 0 C0.99 0.33 1.98 0.66 3 1 C3.33 1.99 3.66 2.98 4 4 C2.35 4.66 0.7 5.32 -1 6 C-1.042721 4.33388095 -1.04063832 2.66617115 -1 1 C-0.67 0.67 -0.34 0.34 0 0 Z " fill="#1C1A1B" transform="translate(172,100)"/>
<path d="M0 0 C1 3 1 3 1 5 C-1.64 5 -4.28 5 -7 5 C-4.87219421 2.65941363 -2.88437779 1.29299694 0 0 Z " fill="#DADADA" transform="translate(127,242)"/>
<path d="M0 0 C2.5 1.3125 2.5 1.3125 5 3 C5 3.99 5 4.98 5 6 C3.35 5.67 1.7 5.34 0 5 C0 3.35 0 1.7 0 0 Z " fill="#666666" transform="translate(200,201)"/>
<path d="M0 0 C2.97 0.495 2.97 0.495 6 1 C5.67 1.99 5.34 2.98 5 4 C3.35 3.67 1.7 3.34 0 3 C0 2.01 0 1.02 0 0 Z M0 4 C2 5 2 5 2 5 Z " fill="#6F6A6C" transform="translate(223,187)"/>
<path d="M0 0 C2.4375 0.75 2.4375 0.75 5 2 C5.8125 4.125 5.8125 4.125 6 6 C3 6 3 6 1.3125 4.6875 C0 3 0 3 0 0 Z " fill="#787677" transform="translate(265,128)"/>
<path d="M0 0 C0.66 0.33 1.32 0.66 2 1 C-0.3125 3.5 -0.3125 3.5 -3 6 C-3.99 6 -4.98 6 -6 6 C-6 5.34 -6 4.68 -6 4 C-4.03852126 2.61061923 -2.03833424 1.2739589 0 0 Z " fill="#9C9A9B" transform="translate(142,122)"/>
<path d="M0 0 C0.33 1.32 0.66 2.64 1 4 C-2.28696233 4.79953138 -3.71023192 5.09658936 -7 4 C-4.69 2.68 -2.38 1.36 0 0 Z " fill="#959394" transform="translate(184,98)"/>
<path d="M0 0 C3 3.625 3 3.625 3 7 C2.34 7 1.68 7 1 7 C0.67 7.66 0.34 8.32 0 9 C0 6.03 0 3.06 0 0 Z " fill="#DCDCDC" transform="translate(195,285)"/>
<path d="M0 0 C3.96 1.98 3.96 1.98 8 4 C7.01 4.66 6.02 5.32 5 6 C4.34 5.67 3.68 5.34 3 5 C3 4.34 3 3.68 3 3 C2.01 2.67 1.02 2.34 0 2 C0 1.34 0 0.68 0 0 Z " fill="#272727" transform="translate(145,279)"/>
<path d="M0 0 C1.32 0.66 2.64 1.32 4 2 C2.68 3.32 1.36 4.64 0 6 C-1.125 2.25 -1.125 2.25 0 0 Z " fill="#BEBEBE" transform="translate(232,176)"/>
</svg>
